mtllib cube.mtl

v -0.500000 -0.500000 0.500000
v -0.500000 -0.500000 -0.500000
v 0.500000 -0.500000 -0.500000
v 0.500000 -0.500000 0.500000
v -0.500000 0.500000 0.500000
v -0.500000 0.500000 -0.500000
v 0.500000 0.500000 -0.500000
v 0.500000 0.500000 0.500000
vt 0.000000 0.000000
vt 1.000000 0.000000
vt 0.000000 1.000000
vt 1.000000 1.000000
vn -1.000000 0.000000 0.000000
vn 0.000000 0.000000 -1.000000
vn 1.000000 -0.000000 0.000000
vn 0.000000 0.000000 1.000000
vn 0.000000 -1.000000 0.000000
vn 0.000000 1.000000 0.000000

usemtl red
f 5/1/1 6/2/1 1/3/1
f 6/2/1 2/4/1 1/3/1
f 7/2/3 8/1/3 4/3/3
f 3/4/3 7/2/3 4/3/3

usemtl green
f 8/2/4 5/1/4 1/3/4
f 4/4/4 8/2/4 1/3/4
f 6/1/2 7/2/2 2/3/2
f 7/2/2 3/4/2 2/3/2

usemtl blue
f 5/3/6 8/4/6 6/1/6
f 8/4/6 7/2/6 6/1/6
f 1/3/5 2/1/5 3/2/5
f 4/4/5 1/3/5 3/2/5
